<?xml version="1.0" encoding="utf-8"?>
<!-- Generator: Adobe Illustrator 26.0.1, SVG Export Plug-In . SVG Version: 6.00 Build 0)  -->
<svg version="1.1" id="Layer_1" xmlns="http://www.w3.org/2000/svg" xmlns:xlink="http://www.w3.org/1999/xlink" x="0px" y="0px"
	 viewBox="0 0 1080 1080" style="enable-background:new 0 0 1080 1080;" xml:space="preserve">
<style type="text/css">
	.st0{opacity:0.2;}
	.st1{fill:#371A45;}
	.st2{fill:#D8D8D8;}
	.st3{fill:#FFFFFF;}
	.st4{opacity:0.3;}
	.st5{fill:none;stroke:#FFFFFF;stroke-width:7.8618;stroke-linecap:round;stroke-miterlimit:10;}
	.st6{opacity:0.5;}
	.st7{fill:#22A7F0;}
	.st8{fill:#1C7AEA;}
	.st9{opacity:0.7;}
	.st10{fill:#FFB200;}
	.st11{fill:#FF9100;}
	.st12{fill:none;stroke:#293856;stroke-width:6.0778;stroke-linecap:round;stroke-miterlimit:10;}
	.st13{fill:#D66B09;}
	.st14{opacity:0.35;}
	.st15{fill:#FFD766;}
	.st16{fill:#FFAA39;}
	.st17{fill:#FFCF6E;}
	.st18{fill:#FFEC90;}
	.st19{opacity:0.41;}
</style>
<g>
	<g class="st0">
		<ellipse class="st1" cx="589.79" cy="930.36" rx="176.21" ry="28.9"/>
	</g>
	<g>
		<g>
			<path class="st2" d="M582.34,605.58c-5.86-30.88,4.22-84.26-20.71-100.1c-28.73-18.26-110.94-37.04-146.52-89.23
				c-2.81-41.97-33.76-69.65-48.37-64.69c-6.09,2.07-9.62,9.04-9.62,9.04c-34.58,7.14-38.17,39.9-30.9,58.17
				c6.86,17.25,9.61,34.75,14.1,43.1c18.27,33.97,86.71,94.72,189.41,131.27"/>
		</g>
		<g>
			<path class="st1" d="M578.27,606.36c-5.72-25.52,3.9-82.15-18.41-97.07c-9.54-6.02-20.3-10.2-30.72-14.66
				c-32.18-13.36-65.72-27.05-93.04-49.68c-9.16-7.63-17.58-16.36-24.4-26.36c-0.42-0.59-0.65-1.26-0.7-1.94
				c-1.14-16.11-6.87-32.07-16.76-44.82c-5.4-6.97-17.41-18.74-26.48-15.85c-2.33,0.95-4.62,3.41-6.03,5.68
				c-0.22,0.37-0.49,0.79-0.6,1.01c-0.65,1.24-1.82,2.07-3.09,2.34c-6.68,1.42-12.98,4.08-17.98,8.27
				c-13.08,10.76-15.35,30.7-8.82,45.76c4.03,10.39,6.74,21.69,9.87,32.11c1.82,6.81,5.37,12.6,9.46,18.32
				c26.44,34.95,63.02,61.1,100.57,83.09c25.53,14.69,52.38,26.58,79.29,38.63c1.05,0.47,1.52,1.69,1.05,2.74
				c-0.42,0.95-1.47,1.42-2.44,1.16c-28.81-7.88-56.13-20.5-82.1-35.16c-39.14-22.49-86.65-55.64-110.12-94.9
				c-1.97-3.38-3.36-7.45-4.5-11.16c-3.26-10.84-5.68-21.22-9.66-31.57c-11.68-28.91,1.72-60.1,33.55-66.1c0,0-3.1,2.37-3.1,2.37
				c0.4-0.75,0.67-1.2,1.03-1.76c13.46-21.28,35.92-5,46.97,9.67c10.95,14.27,17.02,31.78,18.13,49.49l-0.71-2.06
				c6.3,9.23,14.16,17.42,22.86,24.66c31.24,25.9,70.2,39.08,107.07,55.37c5.51,2.55,10.8,5.06,16,8.45
				c20.12,14,18.67,46.64,19.6,68.32c0.32,11.39,0.31,23.02,2.33,34.11C587.22,610.13,579.53,611.81,578.27,606.36L578.27,606.36z"
				/>
		</g>
		<g>
			<path class="st1" d="M425.44,546.03c-1.6,0-3.13-0.94-3.8-2.5c-0.9-2.1,0.07-4.53,2.17-5.44c40.25-17.31,40.43-75.54,40.42-76.13
				c-0.01-2.29,1.83-4.15,4.12-4.16c0.01,0,0.01,0,0.02,0c2.28,0,4.13,1.84,4.14,4.12c0.01,2.62-0.2,64.32-45.43,83.77
				C426.54,545.93,425.99,546.03,425.44,546.03z"/>
		</g>
		<g>
			<path class="st3" d="M528.79,932.91c33.12,0,51.96,0.39,58.69-10.86c9.98-16.69,0.12-55.45-3.5-108.64
				c-0.59-8.68-1.08-16.76-1.46-24.32c-3.74-73.45,1.66-96.99,3.52-140.04l-98.99-2.79c0,0,1.71,94.96,5.02,142.68
				c0.03,0.37,0.05,0.76,0.08,1.14c2.76,38.88,10.23,91.3,10.23,91.3s-28.21,4.83-29.37,24.25
				C471.38,933.02,494.58,932.91,528.79,932.91z"/>
		</g>
		<g>
			<path class="st2" d="M528.79,932.91c33.12,0,51.96,0.39,58.69-10.86c1.27-2.12,2.21-4.61,2.89-7.42
				c-9.61,7.21-28.79,6.91-58.94,6.91c-29.98,0-52.12,0.07-58.42-15.75C471.48,933.02,494.66,932.91,528.79,932.91z"/>
		</g>
		<g>
			<path class="st2" d="M487.05,646.26c0,0,1.71,94.96,5.02,142.68c0.03,0.37,0.05,0.76,0.08,1.14c40.69-9.23,73.86-4.66,90.36-0.98
				c-3.74-73.45,1.66-96.99,3.52-140.04L487.05,646.26z"/>
		</g>
		<g>
			<path class="st1" d="M535.07,937.05c-1.01,0-2.03,0-3.06,0l-3.62,0c-0.13,0-0.27,0-0.4,0c-24.13,0-43.18-0.06-52.84-10.31
				c-4.77-5.06-6.81-12.04-6.26-21.36c1.06-17.85,20.38-24.93,28.88-27.19c-1.78-12.9-7.56-56.22-9.83-88.95
				c-3.28-47.29-5.01-141.94-5.02-142.89c-0.04-2.29,1.78-4.17,4.07-4.21c0.03,0,0.05,0,0.08,0c2.25,0,4.1,1.8,4.14,4.07
				c0.02,0.95,1.74,95.39,5,142.47c2.66,38.39,10.22,91.6,10.3,92.13c0.32,2.22-1.19,4.29-3.4,4.66c-0.24,0.04-25,4.54-25.94,20.42
				c-0.41,6.91,0.9,11.88,4.02,15.19c7.23,7.67,24.69,7.71,46.83,7.71c0.13,0,0.26,0,0.39,0h3.62c29.07,0.04,46.61,0.02,51.91-8.84
				c6.14-10.27,3.6-32.48,0.38-60.6c-1.55-13.55-3.31-28.9-4.45-45.64c-4.76-69.84-2.37-101.4-0.05-131.93
				c0.78-10.29,1.59-20.93,2.1-32.9c0.1-2.28,2-4.04,4.31-3.96c2.28,0.1,4.06,2.03,3.96,4.31c-0.52,12.1-1.33,22.81-2.12,33.16
				c-2.29,30.23-4.66,61.49,0.06,130.74c1.13,16.55,2.87,31.8,4.41,45.26c3.53,30.83,6.08,53.11-1.5,65.79
				C583.56,936.67,566.22,937.05,535.07,937.05z"/>
		</g>
		<g>
			<path class="st1" d="M543.08,822.58c-15.91,0-34.25-2.33-51.11-10.13c-2.08-0.96-2.98-3.42-2.02-5.5
				c0.96-2.08,3.42-2.98,5.5-2.02c38.31,17.72,86.95,4.63,87.43,4.5c2.21-0.61,4.48,0.69,5.09,2.89c0.61,2.2-0.68,4.48-2.88,5.09
				C583.84,817.75,565.97,822.58,543.08,822.58z"/>
		</g>
		<g>
			<path class="st2" d="M704.05,548.43c-11.3,7.97-25.07,14.31-40.46,18.46l-5.83-34c0,0,16.74-1.97,29.43,3.94
				C693.13,539.6,698.8,543.7,704.05,548.43z"/>
		</g>
		<g>
			<g>
				<path class="st3" d="M597.05,744.43c0,0,14.02-1.63,32.64-5.32c3.64-0.74,7.46-1.54,11.38-2.42c0.62-0.12,1.24-0.27,1.86-0.42
					c1.87-0.43,3.78-0.88,5.69-1.34c27.48-6.74,57.78-17.38,68.42-32.95c17.39-25.44,6.15-136.96-17.87-178.59
					c-6.33-10.98-23.39-16.69-42.58-19.53c-0.13-0.02-0.26-0.03-0.39-0.05c-14.08-2.06-29.28-2.58-42.18-2.48
					c-1.14,0-2.27,0.01-3.37,0.04c-2.21,0.03-4.32,0.09-6.34,0.15c-1.57,0.05-3.08,0.1-4.52,0.16c-10.29,0.42-17.03,1.08-17.03,1.08
					l1.38,23.47l0.71,11.97l1.3,22.19l0.4,6.71L597.05,744.43z"/>
			</g>
			<g>
				<path class="st2" d="M584.16,526.22l0.7,11.96l9.68,163.76l2.51,42.48c0,0,0.29-0.03,0.85-0.1c0.16-0.02,0.35-0.05,0.54-0.07
					c0.16-0.02,0.34-0.05,0.51-0.07c0.14-0.01,0.27-0.03,0.41-0.05c0.05-0.01,0.12-0.01,0.17-0.02c0.25-0.03,0.53-0.07,0.83-0.11
					c0.06,0,0.13-0.01,0.2-0.02c0.24-0.03,0.49-0.07,0.76-0.1c0.37-0.05,0.74-0.1,1.14-0.16c0.28-0.05,0.59-0.08,0.89-0.13
					c0.31-0.05,0.63-0.09,0.95-0.14c0.41-0.06,0.84-0.12,1.28-0.18c0.89-0.14,1.83-0.27,2.83-0.43c0.88-0.13,1.8-0.27,2.76-0.43
					c1.11-0.18,2.27-0.36,3.48-0.56c4.45-0.74,9.54-1.65,15.03-2.74c1.07-0.21,2.16-0.43,3.25-0.66c0.76-0.16,1.55-0.32,2.33-0.49
					c1.89-0.4,3.84-0.82,5.8-1.26c29.25-6.57,64.33-17.7,75.95-34.71c14.33-20.94,9.24-100.26-6.42-150.87
					c7.46,44.82,7.7,93.74-3.11,109.52c-5.34,7.81-16.4,14.41-29.68,19.91c-5.66,2.34-11.63-2.5-10.67-8.55
					c0.01-0.05,0.02-0.1,0.02-0.15c1.72-11.1,2.09-23.6,0.33-38.05c-3.77-30.95-13.59-74.95-51.61-106.85
					C615.01,526.2,601.04,526.15,584.16,526.22z"/>
			</g>
			<g>
				<path class="st1" d="M593.18,749.05L578.4,499l3.97-0.38c0.25-0.03,25.36-2.41,52.28-1.02c37.22,1.91,60.14,9.89,68.11,23.72
					c25.04,43.42,35.96,156.3,17.69,183.01c-21.98,32.14-118.81,43.74-122.92,44.22L593.18,749.05z M587.14,506.51l13.79,233.24
					c19.1-2.64,95.28-14.62,112.7-40.1c7.4-10.82,9.71-42.41,5.9-80.48c-3.91-39-13.08-74.92-23.93-93.72
					C683,503.61,616.49,504.16,587.14,506.51z"/>
			</g>
			<g>
				<path class="st3" d="M705.52,619.77l-39.97,7.27c-3.57,0.65-6.25,3.62-6.52,7.23c-0.98,13.25-1.66,43.95,12.04,52.63
					c11.37,7.2,28.3,4.43,37.4-5.07c10.17-10.63,8.13-40.46,6.4-55.16C714.33,622.11,710.05,618.95,705.52,619.77z"/>
			</g>
			<g>
				<path class="st2" d="M659.04,634.28c-0.99,13.24-1.66,43.95,12.04,52.62c11.37,7.2,28.3,4.43,37.4-5.07
					c6.25-6.54,7.89-20.34,7.82-33.42c-1.13,6.65-3.43,12.2-6.61,16.02c-18.23,21.87-35.84,0.2-35.84,0.2s-2.04,5.93-4.1,6.47
					c-8.63,2.26-9.71-25.37-9.93-39.69C659.38,632.29,659.11,633.26,659.04,634.28z"/>
			</g>
			<g>
				<path class="st1" d="M685.99,695.12c-6.1,0-12.11-1.53-17.13-4.71c-15.07-9.54-15.21-39.45-13.95-56.43
					c0.41-5.49,4.48-10.02,9.91-11l39.97-7.27c3.28-0.6,6.69,0.2,9.37,2.18c2.67,1.98,4.43,5.01,4.82,8.32
					c2.42,20.57,3.09,47.42-7.52,58.5C704.95,691.5,695.36,695.12,685.99,695.12z M706.27,623.85l-39.97,7.27
					c-1.72,0.31-3.01,1.74-3.13,3.47c-1.88,25.37,1.91,43.62,10.12,48.83c9.43,5.97,24.17,3.94,32.19-4.44
					c6.35-6.63,8.32-26,5.28-51.81c-0.13-1.06-0.67-1.99-1.52-2.63C708.37,623.9,707.32,623.65,706.27,623.85z"/>
			</g>
			<g>
				<path class="st1" d="M690.37,693.89c-17.39-9.06-20.72-31.09-19.57-48.83c0.13-1.21,0.25-2.34,0.58-3.66
					c0.15-0.58,0.74-0.94,1.32-0.79c0.55,0.14,0.89,0.67,0.81,1.22c-0.73,8.87,1.06,18.21,3.77,26.64
					c2.73,7.49,7.42,14.43,14.53,18.11c0.39,0.19,0.93,0.42,1.1,0.47C698.03,688.62,695.29,696.03,690.37,693.89L690.37,693.89z"/>
			</g>
			<g>
				<path class="st1" d="M637.49,524.61c14.72-3.5,29.49-6.42,44.59-7.82c5.08-0.42,10.2-0.71,15.53-0.38
					c2.28,0.14,4.02,2.11,3.88,4.39c-0.14,2.38-2.3,4.16-4.66,3.85c-14.41-1.61-29.36,0.12-43.77,1.9
					c-4.91,0.66-9.84,1.39-14.69,2.23C635.69,529.2,634.85,525.32,637.49,524.61L637.49,524.61z"/>
			</g>
		</g>
		<g>
			<path class="st3" d="M472.22,711.99c14.52,44.28,65.85,40.78,97.19,43.59c0,0,23.88-30.56,42.86-17.21
				c37.39,26.31,59.47-7.37,52.07-50.64c-9.81-57.48-19.62-117.15-30.1-161.51c-3.22-13.63-6.5-25.82-9.86-36.05L493.7,513
				c-3.78,14.49-8.95,35.54-13.71,58.97C470.03,621.01,461.89,680.48,472.22,711.99z"/>
		</g>
		<g>
			<path class="st2" d="M479.99,571.97c14.75,5.36,31.18,8.35,48.5,8.35c47.28,0,87.92-22.25,105.75-54.1
				c-3.22-13.63-6.5-25.82-9.86-36.05L493.7,513C489.93,527.49,484.75,548.54,479.99,571.97z"/>
		</g>
		<g>
			<path class="st1" d="M495.71,513.53c-8.99,51.66-22.6,102.65-24,155.23c-0.22,12.75,0.24,25.84,3.35,38.14
				c8.85,35.54,43.18,41.46,74.9,43.25c6.53,0.43,13.13,0.71,19.83,1.3l-3.63,1.57c7.69-9.09,16.6-17.42,28.26-21.08
				c6.09-1.93,13.77-1.32,19.31,2.41c4.21,2.93,8.89,5.79,13.69,7.42c28.18,9.76,36.3-24.03,33.88-45.47
				c-0.27-3.5-0.89-7.14-1.48-10.61c-6.18-36.07-12.29-72.92-19.14-108.77c-5.61-28.72-11.38-57.69-20.24-85.52
				c-0.7-2.17,0.49-4.51,2.67-5.21c2.18-0.7,4.51,0.49,5.21,2.67c4.6,14.24,8.19,28.64,11.49,43.08
				c11.28,50.31,19.4,101.59,28.16,152.36c3.38,18.87,3.42,40.38-8.77,56.4c-13.71,17.01-34.38,12.02-49.92,0.63
				c-11.42-7.05-25.12,4.53-33.21,12.92c-2.26,2.01-3.65,5.71-7.02,5.44c-19.48-1.59-40.37-1.45-59.59-7.53
				c-31.01-9.57-43.61-32.29-45.65-63.4c-2.23-33.36,2.57-66.8,8.37-99.37c5-26.01,10.53-51.95,19.53-76.92
				C492.64,510.23,496.01,510.91,495.71,513.53L495.71,513.53z"/>
		</g>
		<g class="st4">
			<path class="st5" d="M662.82,633.99"/>
		</g>
		<g>
			<g>
				<path class="st3" d="M432.3,382.9c12.57,86.45,92.87,146.35,179.32,133.76c29.12-4.23,55.23-16.16,76.56-33.43
					c20.96-16.93,37.32-39.02,47.41-64.04c10.14-25.1,13.97-53.15,9.79-81.87c-12.59-86.45-92.87-146.33-179.32-133.76
					C479.59,216.15,419.71,296.45,432.3,382.9z"/>
			</g>
			<g>
				<path class="st1" d="M432.28,382.9c0.11,0.79,0.23,1.58,0.37,2.37c17.65,50.75,64.64,88.41,121.72,91.56
					c75.34,4.16,139.7-53.38,143.78-128.52c4.06-75.13-53.71-139.41-129.04-143.56c-3.01-0.17-5.99-0.23-8.95-0.2
					C476.89,219.82,419.99,298.41,432.28,382.9z"/>
			</g>
			<g>
				<path class="st2" d="M444.66,425.31c28.28,62.67,95.53,101.75,166.95,91.35c29.12-4.23,55.23-16.16,76.56-33.43
					c0.65-0.53,1.31-1.07,1.95-1.61c1.29-1.08,2.58-2.17,3.83-3.3c0.63-0.55,1.25-1.12,1.87-1.69c0.61-0.57,1.23-1.14,1.84-1.72
					c0.61-0.57,1.21-1.15,1.81-1.75c0.6-0.58,1.2-1.18,1.78-1.78c0.51-0.51,1.03-1.04,1.53-1.55c0.14-0.15,0.29-0.31,0.43-0.44
					c0.47-0.5,0.94-1,1.4-1.5c1.5-1.58,2.94-3.21,4.34-4.85c0.56-0.65,1.11-1.31,1.66-1.98c0.7-0.83,1.39-1.68,2.06-2.53
					c0.09-0.1,0.17-0.21,0.24-0.31c0.62-0.78,1.23-1.57,1.85-2.38c2.02-2.66,3.95-5.38,5.79-8.15c0.55-0.81,1.09-1.63,1.61-2.47
					c0.14-0.21,0.27-0.42,0.4-0.63c0.43-0.67,0.85-1.34,1.25-2.02c0.62-1,1.22-2.01,1.81-3.03c0.27-0.46,0.53-0.91,0.79-1.37
					c0.35-0.6,0.68-1.2,1.01-1.81c0.03-0.06,0.06-0.1,0.09-0.15c0.33-0.59,0.65-1.17,0.95-1.76c0.55-1.02,1.08-2.05,1.6-3.09
					c0.49-0.98,0.98-1.96,1.45-2.93c0.72-1.52,1.43-3.05,2.12-4.59c0.33-0.77,0.67-1.55,1-2.32c0.32-0.77,0.64-1.55,0.96-2.34
					c0.16-7.57-0.81-14.29-2.65-20.11c-12.67-39.92-66.66-37.35-80.97,24.1c-3.34,20.04,0.21,35.51,7.47,45.72
					c-16.64,8.43-34.91,14.33-54.37,17.16C542.46,495.17,482.75,470.27,444.66,425.31z"/>
			</g>
			<g>
				<path class="st1" d="M588.49,522.48c-34.72,0-68.38-11.11-96.72-32.24c-34.76-25.93-57.34-63.83-63.58-106.74
					c-12.89-88.58,48.68-171.13,137.26-184.02c42.91-6.25,85.68,4.59,120.44,30.52c34.76,25.93,57.34,63.83,63.58,106.74
					c6.25,42.91-4.59,85.68-30.52,120.44c-25.93,34.76-63.83,57.34-106.74,63.58C604.29,521.91,596.36,522.48,588.49,522.48z
					 M589.16,206.03c-7.47,0-14.99,0.54-22.51,1.64c-40.72,5.93-76.7,27.36-101.3,60.34c-24.6,32.98-34.89,73.58-28.96,114.3
					c5.93,40.72,27.36,76.7,60.34,101.3c32.98,24.6,73.57,34.89,114.3,28.96c40.72-5.93,76.7-27.36,101.3-60.34
					c24.6-32.99,34.89-73.58,28.96-114.3c-5.93-40.72-27.36-76.7-60.34-101.3C654.05,216.57,622.1,206.03,589.16,206.03z"/>
			</g>
			<g>
				<path class="st1" d="M562.15,496.24c-2.93,0-5.86-0.08-8.81-0.24c-35.19-1.95-67.77-15.2-94.2-38.33
					c-1.72-1.51-1.89-4.12-0.39-5.84c1.5-1.72,4.12-1.9,5.84-0.39c25.03,21.9,55.88,34.46,89.21,36.3
					c39.41,2.17,77.31-11.11,106.66-37.42c29.24-26.21,46.51-62.21,48.63-101.38c3.03-56.04-25.48-108.15-74.41-136.01
					c-1.99-1.13-2.68-3.66-1.55-5.65c1.13-1.99,3.66-2.68,5.65-1.55c24.78,14.11,45.23,34.72,59.14,59.62
					c14.3,25.59,21.02,54.65,19.44,84.03c-2.24,41.38-20.49,79.42-51.37,107.1C637.18,482.29,600.6,496.24,562.15,496.24z"/>
			</g>
			<g>
				<path class="st3" d="M737.32,441.4c-30.57,68.2-101.49,43.3-78.87-24.75C687.86,344,763.68,370.61,737.32,441.4z"/>
			</g>
			<g>
				<path class="st2" d="M677.11,480.1c-21.31-7.31-29.58-38.18-17.29-66.95c4.76,35.14,52.25-7.19,58.75-21.33
					C770.2,421.57,715.97,494.36,677.11,480.1z"/>
			</g>
			<g>
				<path class="st1" d="M688.36,485.9c-4.77,0-9.32-0.86-13.46-2.47c-18.96-7.38-32.61-31.29-20.38-68.08l0.09-0.25
					c15.91-39.31,45.86-51.47,67.21-43.18c19.27,7.48,33.55,32.87,19.38,70.92l-0.1,0.25C727.4,473.65,706.33,485.9,688.36,485.9z
					 M662.33,418.09c-10.44,31.55,0.29,51.68,15.57,57.63c16.18,6.29,40.46-2.26,55.58-35.88c12.14-32.73,0.92-54.14-14.67-60.19
					C701.27,372.82,676.24,383.84,662.33,418.09z M737.32,441.4h0.01H737.32z"/>
			</g>
			<g>
				<path class="st3" d="M739.75,441.77c-24.83,55.24-78.28,37.49-59.99-17.56C703.59,364.56,761.65,383.92,739.75,441.77z"/>
			</g>
			<g>
				<path class="st2" d="M739.75,441.77c3.17-8.39,4.67-15.95,4.83-22.6c-14.76,32.88-51.08,34.49-64.95,5.4
					C661.71,479.33,714.97,496.89,739.75,441.77z"/>
			</g>
			<g>
				<path class="st1" d="M700.55,479.51c-3.53,0-6.88-0.63-9.93-1.82c-14.54-5.67-24.74-24.8-14.78-54.78l0.08-0.23
					c13.18-33,37.12-43.64,53.94-37.1c14.94,5.81,25.62,26.33,13.77,57.65l-0.1,0.23C731.97,469.17,714.82,479.51,700.55,479.51z
					 M683.65,425.63c-8.18,24.75-0.9,40.11,9.97,44.34c11.83,4.61,30.1-2.75,42.3-29.79c9.79-25.98,2.17-42.52-9.07-46.89
					C713.85,388.23,694.84,397.72,683.65,425.63z M739.75,441.77h0.01H739.75z"/>
			</g>
			<g class="st6">
				<path class="st3" d="M662.3,335.94c-8.54,31.51-44.51,22.36-41.72-6.13C626.14,294.09,668.7,304.19,662.3,335.94z"/>
			</g>
			<g class="st6">
				<path class="st3" d="M648.98,379.86c-3.96,11.86-19.77,8.16-16.66-5.13C636.29,362.87,652.09,366.57,648.98,379.86z"/>
			</g>
			<g class="st6">
				<path class="st3" d="M469.62,330.31C465.84,219.55,580,220.57,610.95,248.12C538.32,243.4,500.5,283.56,469.62,330.31z"/>
			</g>
		</g>
		<g>
			<path class="st3" d="M679.66,877.71"/>
		</g>
		<g>
			<path class="st3" d="M320.62,431.94c0.49,8.71,2.53,15.01,5.66,15.21c7.47,0.48,8.94-2.87,22.02-4.05
				c9.86-0.9,19.23-40.3,14.84-54.29c-0.03-0.09-0.06-0.19-0.1-0.28c-3.44-9.84-22.95-8.93-26.29-6.46
				C324.13,391.45,319.72,415.83,320.62,431.94z"/>
		</g>
		<g>
			<path class="st2" d="M320.62,431.94c0.49,8.71,2.53,15.01,5.66,15.21c7.47,0.48,8.94-2.87,22.02-4.05
				c9.86-0.9,19.23-40.3,14.84-54.29c-0.03-0.09-0.06-0.19-0.1-0.28c-1.31,10.34-5.43,30.59-17.85,37.94
				C334.31,432.91,325.53,435.15,320.62,431.94z"/>
		</g>
		<g>
			<path class="st1" d="M327.68,451.34c-0.53,0-1.09-0.02-1.67-0.05c-2.5-0.16-5.91-1.77-7.89-8.49c-4.33-14.66-1.39-51,16.17-64.03
				l0,0c3.88-2.88,14.57-3.32,22-0.9c5.65,1.84,9.39,5.2,10.81,9.72c3.79,12.09-1.43,40.93-9.62,53.21
				c-2.66,3.98-5.62,6.15-8.8,6.44c-6.15,0.56-9.42,1.59-12.31,2.5C333.73,450.55,331.23,451.34,327.68,451.34z M327.35,443.3h0.01
				H327.35z M327.14,443.05c2.58,0.09,4.19-0.42,6.74-1.22c3.13-0.98,7.01-2.21,14.05-2.84c-0.01,0,1.3-0.37,3.42-4.01
				c6.52-11.21,10.78-35.56,7.85-44.92c-0.51-1.64-2-2.96-4.41-3.94c-5.81-2.35-13.99-1.49-15.64-0.65
				c-9.59,7.19-13.75,25.11-14.4,38.3C324.21,434.7,325.94,441.4,327.14,443.05z"/>
		</g>
		<g>
			<path class="st3" d="M472.22,711.99c16.34,56.55,101.61,43.02,101.61,43.02s1.68,6.06,4.77,15.71
				c7.79,24.26,24.55,71.17,46.19,101.39c0,0-0.27,8.53-13.61,22.29c-2.54,2.61-3.69,5.6-4.17,8.57c-0.62,3.77-0.15,7.51-0.04,10.42
				c0.83,23.72,62.53,23.26,81.82,12.78c24.02-13.05,20.21-62.75,17.69-73.87c-0.44-1.97-0.9-3.85-1.36-5.64
				c-7.32-29.18-14.79-36.18-23.95-66.57c-3.09-10.26-5.58-21.45-7.73-33.12c-5.85-31.58-9.24-66.59-15.48-95.67l-189.93,3.91
				C466.18,691.73,472.22,711.99,472.22,711.99z"/>
		</g>
		<g>
			<path class="st2" d="M606.97,913.38c0.83,23.72,62.53,23.26,81.82,12.78c24.02-13.05,20.21-62.75,17.69-73.87
				c-0.44-1.97-0.9-3.85-1.36-5.64c0.29,19.85-2.88,51.65-24.63,63.04c-28.51,14.92-66.19,8.24-73.48-6.74
				C606.39,906.73,606.87,910.47,606.97,913.38z"/>
		</g>
		<g>
			<path class="st2" d="M472.22,711.99c16.34,56.55,101.61,43.02,101.61,43.02s1.68,6.06,4.77,15.71
				c33.24-26.76,74.34-26.18,94.84-23.75c-5.85-31.58-9.24-66.59-15.48-95.67l-189.93,3.91
				C466.18,691.73,472.22,711.99,472.22,711.99z"/>
		</g>
		<g>
			<path class="st1" d="M651.48,937.09c-14.29,0-28.61-2.29-37.59-7.41c-8.85-5.06-10.9-11.58-11.06-16.16
				c-0.02-0.63-0.06-1.3-0.1-2c-0.32-5.39-0.81-13.53,5.48-20.02c9.01-9.29,11.52-15.85,12.21-18.43
				c-26.43-37.78-45.13-98.29-49.58-113.51c-7.2,0.81-24.05,2.1-42.33-0.78c-32.27-5.09-53.11-20.88-60.27-45.65
				c-0.25-0.82-6.22-21.32-4.36-58.14c0.12-2.28,2.07-4.03,4.34-3.93c2.28,0.12,4.04,2.06,3.92,4.34
				c-1.78,35.25,3.97,55.2,4.03,55.4c15.16,52.45,96.18,40.24,97,40.11c2.08-0.34,4.08,0.95,4.64,2.98
				c0.21,0.74,20.87,74.64,50.33,115.79c0.53,0.74,0.8,1.63,0.77,2.54c-0.03,1.04-0.73,10.54-14.78,25.03
				c-3.75,3.87-3.44,9.13-3.16,13.76c0.05,0.77,0.09,1.51,0.12,2.2c0.13,3.65,2.38,6.68,6.89,9.26c16.98,9.7,55.87,7.07,68.81,0.03
				c20.96-11.38,18.23-57.85,15.62-69.31c-4.29-18.83-8.65-29.02-13.27-39.8c-3.76-8.77-7.64-17.84-11.95-32.14
				c-6.88-22.84-10.83-50.3-14.64-76.85c-2.67-18.61-5.2-36.2-8.65-52.27c-0.48-2.24,0.94-4.44,3.18-4.92
				c2.23-0.48,4.44,0.94,4.92,3.18c3.51,16.35,6.17,34.9,8.75,52.83c3.77,26.25,7.67,53.39,14.37,75.64
				c4.17,13.85,7.97,22.7,11.63,31.26c4.77,11.14,9.28,21.66,13.73,41.23c2.13,9.36,7.54,63.6-19.74,78.42
				C682.24,934.43,666.88,937.09,651.48,937.09z"/>
		</g>
		<g>
			<path class="st1" d="M601.22,817.08c-2.48,0-5.01-0.06-7.59-0.19c-2.28-0.12-4.04-2.06-3.93-4.34c0.12-2.28,2.09-4.05,4.34-3.93
				c54.7,2.76,84.92-27.66,85.22-27.96c1.59-1.64,4.21-1.68,5.85-0.09c1.64,1.59,1.69,4.2,0.1,5.85
				C683.95,787.71,654.99,817.08,601.22,817.08z"/>
		</g>
		<g>
			<g>
				<path class="st3" d="M657.35,633.56c0,0,8.28,5.99,9.08,15.78c0.92,11.32-5.96,16.24-5.96,16.24s-30.31,17.31-80.59,9.03
					c0,0-15.5-17.85,0.34-29.06C580.23,645.55,633.11,650.37,657.35,633.56z"/>
			</g>
			<g>
				<path class="st3" d="M476.98,701.83l86.5,0.49c10.24,0.06,18.67-8.27,18.73-18.52l0.26-46.03c0.05-8.97-6.33-16.55-14.8-18.33
					c-1.2-0.26-2.44-0.39-3.72-0.4l-86.48-0.49c-10.25-0.06-18.68,8.27-18.73,18.52l-0.21,36.46l-0.06,9.57
					C458.4,693.35,466.74,701.76,476.98,701.83z"/>
			</g>
			<g>
				<path class="st3" d="M476.98,701.83l86.5,0.49c10.24,0.06,18.67-8.27,18.73-18.52l0.26-46.03c0.05-8.97-6.33-16.55-14.8-18.33
					c-1.2-0.26-2.44-0.39-3.72-0.4l-86.48-0.49c-10.25-0.06-18.68,8.27-18.73,18.52l-0.21,36.46l-0.06,9.57
					C458.4,693.35,466.74,701.76,476.98,701.83z"/>
			</g>
			<g>
				<path class="st3" d="M476.98,701.83l86.5,0.49c10.24,0.06,18.67-8.27,18.73-18.52l0.26-46.03c0.05-8.97-6.33-16.55-14.8-18.33
					c-1.2-0.26-2.44-0.39-3.72-0.4l-86.48-0.49c-10.25-0.06-18.68,8.27-18.73,18.52l-0.21,36.46l-0.06,9.57
					C458.4,693.35,466.74,701.76,476.98,701.83z"/>
			</g>
			<g>
				<path class="st2" d="M476.85,701.83l86.5,0.49c10.24,0.06,18.67-8.27,18.73-18.52l0.26-46.03c0.05-8.97-6.33-16.55-14.8-18.33
					c-4.93,3.23-8.06,5.3-8.06,5.3c-4.42,36.92-15.05,55.29-60.93,55.78c-19.81,0.21-32.29-2.89-40.15-6.99l-0.06,9.57
					C458.27,693.35,466.62,701.77,476.85,701.83z"/>
			</g>
			<g>
				<path class="st1" d="M561.99,706.45c-0.05,0-0.09,0-0.14,0h0l-83.28-0.48c-13.44-0.08-24.31-11.07-24.23-24.51l0.24-42.82
					c0.04-6.49,2.61-12.59,7.25-17.17c4.61-4.55,10.68-7.06,17.11-7.06c0.05,0,0.09,0,0.14,0l83.28,0.48
					c6.49,0.04,12.59,2.61,17.17,7.25s7.09,10.77,7.06,17.26l-0.24,42.83C586.28,695.61,575.36,706.45,561.99,706.45z
					 M561.89,698.17c0.03,0,0.06,0,0.09,0c8.83,0,16.04-7.16,16.09-16l0.24-42.83c0.02-4.28-1.63-8.32-4.67-11.39
					c-3.03-3.07-7.06-4.77-11.33-4.79l-83.28-0.48c-0.03,0-0.06,0-0.09,0c-4.24,0-8.25,1.65-11.29,4.67
					c-3.07,3.03-4.77,7.06-4.8,11.33l-0.24,42.82c-0.05,8.87,7.13,16.13,16,16.18L561.89,698.17z"/>
			</g>
			<g>
				<path class="st3" d="M507.58,701.68l0.17,0.33l55.74,0.31c7.5,0.03,14.03-4.42,17-10.85c1.09-2.33,1.7-4.92,1.71-7.67
					l0.12-20.45l0.04-6.75l0.06-11.85l0.04-6.98c0.06-10.25-8.28-18.67-18.52-18.73l-18.69-0.1c8.6,1.67,15.12,9.31,15.07,18.36
					l-0.07,13.66l-0.07,11.2l-0.11,21.19c-0.07,10.23-8.5,18.57-18.73,18.52L507.58,701.68z"/>
			</g>
			<g>
				<path class="st2" d="M498.75,701.62l0.17,0.33l64.56,0.37c7.5,0.03,14.03-4.42,17-10.85c1.09-2.33,1.7-4.92,1.71-7.67
					l0.12-20.45l0.04-6.75l0.06-11.85c-3.75-0.54-8.72-0.05-11.45,5.47c-3.79,7.65-7.75,5.07-10.71,0.74l-0.07,11.2l-0.11,21.19
					c-0.07,10.23-8.5,18.57-18.73,18.52L498.75,701.62z"/>
			</g>
			<g>
				<path class="st1" d="M563.6,706.46c-0.05,0-0.1,0-0.14,0l-78.29-0.45c0,0,0,0,0,0l-4.13-0.02l-0.02-4.12
					c0-3,1.99-3.83,4.14-4.05v-0.09l1.34,0.01c0.37-0.01,0.73-0.01,1.07-0.01l53.78-0.01c3.92,0,7.51-1.47,10.27-4.2
					c2.76-2.73,4.3-6.36,4.32-10.2l0.26-46.04c0.04-6.95-4.89-12.96-11.72-14.29l0.81-8.2l18.68,0.1
					c12.56,0.08,22.71,10.35,22.64,22.9l-0.26,46.03c-0.03,6.06-2.44,11.76-6.77,16.05C575.27,704.12,569.6,706.46,563.6,706.46z
					 M558.62,698.15l4.88,0.03c0.03,0,0.06,0,0.09,0c3.81,0,7.41-1.49,10.15-4.2c2.76-2.73,4.3-6.36,4.32-10.2v0l0.26-46.04
					c0.05-7.99-6.41-14.52-14.41-14.57l-4.32-0.02c3.1,3.93,4.9,8.89,4.87,14.19l-0.26,46.04
					C564.18,688.85,562.21,694.04,558.62,698.15z"/>
			</g>
			<g>
				<path class="st7" d="M526.1,660.5c0,1.7,2.39,15.44,2.39,15.44s4.35,0,9.7,0c6.68,0,12.09-6.91,12.09-15.44
					c0-8.53-5.41-15.44-12.09-15.44c-4.51,0-9.7,0-9.7,0S526.1,657.73,526.1,660.5z"/>
			</g>
			<g>
				<path class="st8" d="M526.1,660.5c0,1.7,2.39,15.44,2.39,15.44s4.35,0,9.7,0c6.68,0,12.09-6.91,12.09-15.44
					c0-8.53-5.41-15.44-12.09-15.44c-4.51,0-9.7,0-9.7,0S526.1,657.73,526.1,660.5z"/>
			</g>
			<g>
				<path class="st1" d="M538.19,679.05h-6.74c-3.24,0-5.98-2.31-6.52-5.5c-1.94-11.4-1.94-12.6-1.94-13.05
					c0-1.66,0.64-6.07,1.91-13.1c0.57-3.15,3.31-5.44,6.51-5.44l6.77,0c8.38,0,15.2,8.32,15.2,18.55
					C553.39,670.73,546.57,679.05,538.19,679.05z M529.2,660.49c0.02,0.66,0.52,4.2,1.85,12.02c0.03,0.19,0.2,0.34,0.4,0.34h6.74
					c4.96,0,8.99-5.54,8.99-12.34c0-6.8-4.03-12.34-8.99-12.34l-6.77,0c-0.2,0-0.37,0.14-0.4,0.34
					C529.68,655.88,529.21,659.53,529.2,660.49z"/>
			</g>
			<g>
				<ellipse class="st7" cx="528.49" cy="660.5" rx="12.09" ry="15.44"/>
			</g>
			<g class="st9">
				<path class="st3" d="M540.58,660.51c0,0.64-0.03,1.27-0.09,1.88c-1.28-6.77-6.05-11.8-11.75-11.8c-6.18,0-11.27,5.92-12,13.56
					c-0.23-1.17-0.34-2.39-0.34-3.65c0-8.53,5.41-15.44,12.09-15.44C535.17,645.06,540.58,651.98,540.58,660.51z"/>
			</g>
			<g>
				<path class="st8" d="M540.58,660.51c0,8.52-5.41,15.44-12.09,15.44c-6.68-0.01-12.09-6.92-12.09-15.45
					c0-1.34,0.13-2.65,0.39-3.89c1.76,5.75,6.15,9.82,11.27,9.82c5.62,0.01,10.35-4.89,11.7-11.54
					C540.29,656.63,540.58,658.52,540.58,660.51z"/>
			</g>
			<g>
				<path class="st1" d="M528.49,679.05c-8.38,0-15.2-8.32-15.2-18.55c0-10.23,6.82-18.55,15.19-18.55c0,0,0,0,0,0
					c4.2,0,8.11,2.03,10.99,5.71c2.71,3.46,4.2,8.02,4.2,12.83c0,4.81-1.49,9.37-4.2,12.83C536.6,677.02,532.7,679.05,528.49,679.05
					z M528.49,648.17C528.49,648.17,528.49,648.17,528.49,648.17c-4.96,0-8.99,5.54-8.99,12.34c0,6.8,4.03,12.34,8.99,12.34
					c2.25,0,4.42-1.18,6.1-3.33c1.86-2.37,2.88-5.57,2.88-9.01c0-3.43-1.02-6.63-2.88-9.01
					C532.91,649.35,530.74,648.17,528.49,648.17z"/>
			</g>
			<g>
				<path class="st1" d="M503.87,704.75c-1.69,0-3.07-1.35-3.1-3.05l-0.42-23.29c-0.08-4.37-2.32-8.38-6.01-10.72
					c-5.58-3.55-8.9-9.62-8.89-16.24l0.07-32.83c0-1.71,1.39-3.1,3.1-3.1c0,0,0,0,0.01,0c1.72,0,3.1,1.4,3.1,3.11l-0.07,32.83
					c-0.01,4.48,2.24,8.58,6.01,10.98c5.45,3.47,8.77,9.39,8.88,15.85l0.42,23.29c0.03,1.72-1.33,3.13-3.05,3.16
					C503.91,704.75,503.89,704.75,503.87,704.75z"/>
			</g>
			<g>
				<path class="st3" d="M657.35,633.56c0,0,8.28,5.99,9.08,15.78c0.92,11.32-5.96,16.24-5.96,16.24s-30.31,17.31-80.59,9.03
					c0,0-15.5-17.85,0.34-29.06C580.23,645.55,633.11,650.37,657.35,633.56z"/>
			</g>
			<g>
				<path class="st2" d="M666.42,649.35c0.92,11.3-5.95,16.22-5.95,16.22s-30.3,17.31-80.59,9.03c0,0-5.1-5.89-6.45-13
					c0.25,0.34,0.41,0.52,0.41,0.52c36.75,6.06,62.83-1.56,74.2-6.1c7.9-3.15,12.93-10.69,12.37-18.81
					c-0.01-0.11-0.02-0.22-0.03-0.34c-0.01-0.19-0.03-0.38-0.07-0.56C662.77,638.98,665.95,643.48,666.42,649.35z"/>
			</g>
			<g>
				<path class="st1" d="M606.86,681.01c-8.39,0-17.63-0.67-27.64-2.32l-1.47-0.24l-0.98-1.13c-0.37-0.42-8.98-10.49-7.66-21.4
					c0.66-5.49,3.61-10.11,8.74-13.75l1.25-0.88l1.52,0.14c0.51,0.04,51.68,4.48,74.39-11.27l2.41-1.67l2.38,1.72
					c0.4,0.29,9.83,7.24,10.78,18.8c1.1,13.5-7.32,19.68-7.68,19.94l-0.36,0.23C661.48,669.77,641.31,681.01,606.86,681.01z
					 M582.14,670.78c44.86,6.96,73.2-7.17,76.05-8.67c0.78-0.67,4.76-4.49,4.11-12.43c-0.4-4.96-3.33-8.81-5.38-10.94
					c-23.75,14-66.44,11.72-75.45,11.06c-2.46,2.05-3.83,4.37-4.16,7.08C576.62,662.49,580.38,668.37,582.14,670.78z"/>
			</g>
		</g>
		<g>
			<path class="st1" d="M542.82,884.66c-13.35-0.96-26.93-0.45-40.23,0.85c-5.46,0.4-6.3-7.51-0.86-8.25
				c13.98-0.02,27.86,0.91,41.63,3.3C545.91,881.04,545.42,884.86,542.82,884.66L542.82,884.66z"/>
		</g>
		<g>
			<path class="st1" d="M671.15,870.46c-16.52,5.93-36.87,8.29-51.86-2.69c-2.19-1.63-4.14-3.58-5.93-5.65
				c-1.5-1.73-1.3-4.35,0.43-5.84c1.84-1.61,4.72-1.24,6.11,0.76c11.22,15.31,33.37,14.12,49.84,9.53
				C672.28,865.75,673.66,869.44,671.15,870.46L671.15,870.46z"/>
		</g>
		<g>
			<g>
				<path class="st10" d="M486.23,319.46c2.53,4.17,4.77,8.43,6.72,12.77c-16.84,17.39-51.17,43.04-92.82,68.36
					c-41.65,25.32-80.24,43.98-103.43,50.92c-2.95-3.73-5.71-7.68-8.24-11.85c-0.12-0.2-0.24-0.39-0.35-0.59
					c-1.11-1.84-2.16-3.7-3.14-5.58c-2.32-4.39-4.33-8.88-6.04-13.43c-0.07-0.18-0.14-0.37-0.21-0.55
					c-2.5-6.77-4.32-13.67-5.5-20.63c-2.24-13.23-2.12-26.65,0.2-39.64c5.64-31.55,24.28-60.61,53.82-78.57
					c29.3-17.81,63.37-21.07,93.78-11.82c12.48,3.79,24.35,9.69,35.02,17.55c5.71,4.2,11.07,8.97,16,14.28
					c0.4,0.43,0.79,0.86,1.18,1.29c3.25,3.61,6.31,7.46,9.14,11.55c1.05,1.51,2.07,3.06,3.06,4.64
					C485.7,318.59,485.96,319.02,486.23,319.46z"/>
			</g>
			<g>
				<path class="st11" d="M503.02,376.02c0.14,4.74-0.01,9.46-0.45,14.16c-0.61,6.6-1.79,13.13-3.51,19.51
					c-7.46,27.7-25.18,52.68-51.62,68.75c-26.5,16.11-56.91,20.31-84.98,14.13c-6.16-1.36-12.22-3.22-18.09-5.56
					c-4.61-1.83-9.09-3.97-13.44-6.39c27.31-10.52,58.48-25.92,90.32-45.28C453.08,415.99,481.11,395.42,503.02,376.02z"/>
			</g>
			<g>
				<path class="st11" d="M492.95,332.23c-16.84,17.39-51.17,43.05-92.82,68.36c-41.65,25.32-80.24,43.98-103.43,50.92
					c-2.95-3.73-5.71-7.68-8.24-11.85c-0.12-0.2-0.23-0.39-0.35-0.59c-1.11-1.85-2.15-3.7-3.14-5.58
					c-2.32-4.39-4.33-8.88-6.04-13.43c-0.07-0.18-0.14-0.37-0.2-0.55c-2.5-6.77-4.33-13.67-5.5-20.63
					c-2.23-13.23-2.11-26.65,0.21-39.64c4.56-25.51,17.62-49.4,38.08-67.1c-4.73,9.68-8.07,19.97-9.96,30.53
					c-2.33,13-2.44,26.4-0.21,39.64c1.17,6.96,3,13.86,5.5,20.62c0.07,0.19,0.14,0.38,0.21,0.56c0.09,0.24,0.21,0.54,0.36,0.89
					c8.18,19.06,30.42,24.82,50.71,20.55c38.68-8.15,117.97-63.87,134.74-76.55C494.46,331.29,491.62,329.27,492.95,332.23z"/>
			</g>
			<g>
				<path class="st12" d="M297.38,353.46"/>
			</g>
			<g>
				<path class="st13" d="M421.25,435.34c31.84-19.35,59.86-39.92,81.78-59.32c0.14,4.74-0.01,9.46-0.45,14.16
					c-16.78,15.62-44.18,35.73-76.55,55.4c-31,18.84-60.26,33.46-81.65,41.43c-4.61-1.83-9.09-3.97-13.44-6.39
					C358.24,470.1,389.41,454.7,421.25,435.34z"/>
			</g>
			<g class="st14">
				<path class="st1" d="M493.57,316.71c-0.73,0.76-1.5,1.53-2.3,2.32c0.69-0.95,1.37-1.92,2.03-2.9
					C493.39,316.32,493.48,316.51,493.57,316.71z"/>
			</g>
			<g>
				<path class="st13" d="M485.42,318.16c0.27,0.43,0.54,0.86,0.81,1.3c2.53,4.17,4.77,8.43,6.72,12.77
					c-16.84,17.39-51.17,43.04-92.82,68.36c-41.65,25.32-80.24,43.98-103.43,50.92c-2.95-3.73-5.71-7.68-8.24-11.85
					c-0.12-0.2-0.24-0.39-0.35-0.59c22.16-5.22,61.52-23.52,103.98-49.33C436.23,362.92,471.63,335.33,485.42,318.16z"/>
			</g>
			<g>
				<g>
					<path class="st13" d="M273.49,402.78l-0.54-7.78c15.75-1.1,55.11-19.1,95.72-43.78c48.44-29.44,78.84-55.72,83.84-66.45
						l7.07,3.29c-6.61,14.21-41.52,42.27-86.86,69.83C330.5,383.54,290.63,401.58,273.49,402.78z"/>
				</g>
			</g>
			<g>
				<g>
					<path class="st13" d="M274.46,363.01l-2.07-7.52c17.29-4.76,46.54-18.97,76.34-37.08c31.22-18.98,57.8-38.95,69.36-52.12
						l5.86,5.15c-12.05,13.73-39.32,34.28-71.17,53.64C322.4,343.53,292.39,358.06,274.46,363.01z"/>
				</g>
			</g>
			<g>
				<g>
					<path class="st13" d="M279.17,423.39l-0.91-7.75c17.98-2.1,58.63-20.88,101.15-46.73c44.61-27.11,81.3-55.95,89.22-70.13
						l6.81,3.8c-8.65,15.48-45.61,44.81-91.97,72.99C339.4,402.36,298.46,421.13,279.17,423.39z"/>
				</g>
			</g>
			<g>
				<g>
					<path class="st13" d="M362.84,494.49l-0.37-1.91l-1.11-1.61l0.33-0.23l0.4-0.08c15.4-3.01,43.85-16.2,72.48-33.61
						c28.79-17.5,52.92-36.11,62.98-48.58l3.04,2.45c-10.32,12.8-34.84,31.75-63.99,49.47
						C407.16,478.28,378.89,491.35,362.84,494.49z"/>
				</g>
			</g>
			<g>
				<path class="st1" d="M387.33,498.28c-19.94,0-39.89-4.99-57.87-15.01l-5.67-3.16l6.05-2.33c28.12-10.83,59.18-26.41,89.83-45.04
					c30.65-18.63,58.77-39.03,81.34-59l4.86-4.3l0.19,6.48c1.27,42.68-20.58,82.95-57.04,105.11
					C430.14,492.52,408.75,498.28,387.33,498.28z M338.25,481c34.25,16.53,74.91,14.73,107.61-5.15
					c32.71-19.88,53.03-55.14,54.12-93.15c-21.92,18.79-48.46,37.8-77.16,55.25C394.12,455.39,365.02,470.2,338.25,481z"/>
			</g>
			<g>
				<path class="st15" d="M550.85,299.37c8.8,14.49-10.81,43.89-47.83,76.65c-21.92,19.4-49.94,39.97-81.78,59.32
					c-31.84,19.35-63.01,34.75-90.32,45.28c-46.13,17.77-81.25,21.64-90.06,7.15c-8-13.16,7.44-38.61,38.05-67.7
					c1.71,4.55,3.72,9.03,6.04,13.43c-8.38,8.75-12.22,15.34-10.2,18.67c2.06,3.39,9.94,2.94,21.94-0.65
					c23.19-6.94,61.77-25.6,103.43-50.92c41.66-25.32,75.98-50.97,92.82-68.36c8.71-9,12.74-15.79,10.68-19.17
					c-2.02-3.32-9.65-2.95-21.26,0.46c-2.83-4.09-5.89-7.94-9.14-11.55C513.15,288.2,542.85,286.22,550.85,299.37z"/>
			</g>
			<g>
				<path class="st16" d="M284.04,431.72c0.31,0.6,0.61,1.19,0.93,1.79c-8.38,8.74-12.23,15.33-10.21,18.66
					c2.06,3.39,9.95,2.94,21.95-0.65c15.38-4.6,37.55-14.37,62.89-27.81c-0.15,2.37,0.1,4.56,0.77,6.52
					c-9.8,5.05-19.33,9.63-28.42,13.63c-39.49,17.41-60.88,19.75-64.04,14.55C266.06,455.37,269.36,446.78,284.04,431.72z"/>
			</g>
			<g>
				<path class="st11" d="M280.33,426.5l1.12,1.11c-7.58,7.45-13.35,14-17.59,19.66C266.84,441.5,272.33,434.6,280.33,426.5z"/>
			</g>
			<g>
				<path class="st11" d="M282.57,428.71l-1.12-1.1c0.13-0.14,0.28-0.28,0.42-0.41L282.57,428.71z"/>
			</g>
			<g>
				<path class="st16" d="M263.86,447.27c-3.13,6-3.56,10.77-1.35,14.42c2.16,3.54,6.44,5.16,12.13,5.39
					c14.84,0.59,39.21-8.35,59.84-17.45c9.34-4.12,19.15-8.83,29.22-14.03c2.33,2.32,5.57,3.96,9.65,4.99
					c-14.88,7.78-29.4,14.59-43.09,20.22c-48.82,20.05-71.2,18.84-75.53,11.71C252.33,468.56,254.15,460.22,263.86,447.27z"/>
			</g>
			<g>
				<path class="st16" d="M419.29,436.53c-31.15,18.8-61.61,33.78-88.36,44.09c-46.12,17.77-81.26,21.64-90.06,7.15
					c-7.99-13.15,7.45-38.6,38.06-67.7c0.51,1.35,1.05,2.69,1.61,4.04l-2.21-2.28c-17.73,17.2-37.16,40.54-28.98,53.97
					c3.16,5.2,9.46,7.46,17.48,7.79c18.87,0.74,47.19-9.27,65.84-16.93c16.37-6.72,33.89-15.12,51.76-24.78
					C393.89,441.96,405.72,440.13,419.29,436.53z"/>
			</g>
			<g>
				<g>
					<path class="st17" d="M363.71,435.61c-10.08,5.2-19.88,9.91-29.22,14.03c-20.63,9.1-45,18.04-59.84,17.45
						c-5.69-0.23-9.97-1.85-12.13-5.39c-2.21-3.64-1.79-8.41,1.35-14.42c4.24-5.66,10.01-12.21,17.59-19.66l1.12,1.1
						c0.48,1.01,0.96,2.01,1.46,3.01c-14.68,15.06-17.98,23.65-16.13,26.69c3.16,5.2,24.54,2.86,64.04-14.55
						c9.08-4.01,18.62-8.58,28.42-13.63c0.32,0.98,0.75,1.9,1.28,2.77C362.22,433.94,362.91,434.82,363.71,435.61z"/>
				</g>
				<g>
					<path class="st18" d="M281.45,427.61c-7.58,7.45-13.35,14-17.59,19.66c2.98-5.77,8.46-12.67,16.47-20.78L281.45,427.61z"/>
				</g>
				<g>
					<path class="st18" d="M282.57,428.71l2.24,2.21c-0.26,0.26-0.53,0.53-0.78,0.79C283.54,430.72,283.05,429.72,282.57,428.71z"/>
				</g>
				<g>
					<path class="st18" d="M473.89,364.91c-19.03,15.28-42.25,31.38-67.18,46.52c-14.49,8.81-29,16.96-43,24.17
						c-0.8-0.79-1.5-1.67-2.07-2.61c-0.53-0.87-0.95-1.79-1.28-2.77c14.01-7.19,28.55-15.35,43.08-24.18
						c24.69-15.01,47.68-30.94,66.49-46.05c33.64-27.04,45.56-44.95,42.41-50.14c-1.89-3.1-11.32-4.11-32.18,2.37l-1.4-4.53
						l-0.47-1.5c10.93-3.39,19.6-5.08,26.1-5.07c6.72,0.02,11.13,1.84,13.34,5.46C525.52,319.39,498.18,345.38,473.89,364.91z"/>
				</g>
			</g>
			<g>
				<g>
					<path class="st17" d="M384.42,441.87c-17.87,9.66-35.39,18.06-51.76,24.78c-18.65,7.66-46.97,17.67-65.84,16.93
						c-8.02-0.32-14.32-2.59-17.48-7.79c-8.18-13.43,11.25-36.76,28.98-53.97l2.21,2.28c0.43,1.04,0.87,2.07,1.34,3.09
						c-0.15,0.14-0.3,0.27-0.42,0.41l-1.12-1.11c-8,8.11-13.49,15.01-16.47,20.78c-9.72,12.95-11.54,21.29-9.13,25.25
						c4.34,7.13,26.71,8.34,75.53-11.71c13.69-5.63,28.21-12.44,43.09-20.22C376.55,441.4,380.25,441.83,384.42,441.87z"/>
				</g>
				<g>
					<path class="st16" d="M280.33,426.5l1.12,1.11c-7.58,7.45-13.35,14-17.59,19.66C266.84,441.5,272.33,434.6,280.33,426.5z"/>
				</g>
				<g>
					<path class="st18" d="M280.54,424.11l2.19,2.26c-0.29,0.29-0.57,0.56-0.85,0.84C281.41,426.18,280.97,425.15,280.54,424.11z"/>
				</g>
				<g>
					<path class="st18" d="M489.83,371.13c-21.06,17.84-47.05,36.3-75.16,53.39c-10.09,6.14-20.22,11.94-30.24,17.35
						c-4.17-0.05-7.87-0.47-11.06-1.28c12.52-6.53,25.3-13.74,38.03-21.48c27.83-16.91,53.54-35.17,74.36-52.8
						c40.28-34.11,49.51-54.53,45.18-61.66c-2.41-3.95-10.62-6.18-26.54-3.55c-7,1.16-15.49,3.26-25.64,6.58
						c-0.56,0.19-1.13,0.37-1.69,0.56l-1.99-5.99c23.43-7.82,53.09-14.32,61.26-0.88C546.93,318.83,511.75,352.56,489.83,371.13z"/>
				</g>
			</g>
			<g>
				<path class="st1" d="M264.61,500.3c-13.38,0-22.62-3.51-26.92-10.59c-11.92-19.62,19.11-53.74,38.67-72.33l4.07-3.87l1.97,5.26
					c1.66,4.43,3.63,8.8,5.85,13l1.25,2.37l-1.86,1.94c-9.53,9.95-9.72,13.63-9.69,14.15c0.46,0.27,3.92,1.84,17.68-2.27
					c23.6-7.06,62.9-26.42,102.56-50.53c39.66-24.11,74.95-50.08,92.08-67.77c9.98-10.31,10.19-14.11,10.15-14.64
					c-0.45-0.27-3.81-1.79-17.02,2.08l-2.57,0.76l-1.53-2.21c-2.7-3.9-5.68-7.66-8.85-11.17l-3.76-4.17l5.31-1.83
					c25.51-8.8,70.09-20.64,82.01-1.02c9.65,15.87-8.04,45.53-48.54,81.37c-22.86,20.23-51.32,40.88-82.31,59.71
					c-30.99,18.83-62.42,34.59-90.91,45.57C304.31,494.86,281.25,500.3,264.61,500.3z M277.54,426.58
					c-26.94,26.51-39.73,49-33.49,59.26c7.26,11.94,40.84,8.53,85.54-8.69c28.08-10.82,59.11-26.38,89.72-44.98
					c30.61-18.61,58.71-38.98,81.24-58.93c35.88-31.75,54.37-59.99,47.11-71.93v0c-6.24-10.26-32.08-9.27-68.02,2.44
					c1.46,1.79,2.88,3.62,4.23,5.49c12.76-3.42,20.07-2.8,22.93,1.9c3.09,5.08-0.46,12.61-11.19,23.69
					c-17.81,18.39-52.79,44.17-93.56,68.95c-40.77,24.78-79.76,43.96-104.29,51.3c-14.77,4.42-23.1,4.11-26.19-0.98
					c-2.86-4.71-0.04-11.48,8.87-21.23C279.43,430.8,278.45,428.7,277.54,426.58z"/>
			</g>
			<g class="st19">
				<g>
					<path class="st3" d="M490.1,334.91c-1.96,2.02-4.15,4.16-6.57,6.39c-1.44-2.89-3.02-5.75-4.72-8.55
						c-0.27-0.44-0.54-0.87-0.81-1.3c-0.98-1.59-2-3.13-3.06-4.65c-2.83-4.09-5.89-7.94-9.14-11.55c-0.39-0.43-0.79-0.86-1.18-1.29
						c-4.93-5.31-10.3-10.08-16.01-14.28c-10.67-7.86-22.53-13.76-35.02-17.55c-30.41-9.24-64.48-5.99-93.78,11.82
						c-19.56,11.89-34.34,28.65-43.73,47.78c8.77-23.51,25.2-44.35,48.31-58.4c29.3-17.8,63.37-21.06,93.77-11.82
						c12.48,3.79,24.36,9.69,35.02,17.56c5.7,4.2,11.07,8.97,16,14.27c0.4,0.43,0.79,0.86,1.19,1.29c3.25,3.61,6.31,7.45,9.14,11.54
						c1.05,1.52,2.07,3.07,3.06,4.65c0.28,0.43,0.54,0.86,0.81,1.3C485.91,326.3,488.15,330.57,490.1,334.91z"/>
				</g>
			</g>
			<g>
				<path class="st1" d="M295.36,455.8l-1.57-1.97c-3.06-3.86-5.92-7.97-8.51-12.23c-1.27-2.09-2.48-4.23-3.61-6.37
					c-2.36-4.47-4.46-9.13-6.23-13.86c-20.09-53.59,0.88-114.1,49.87-143.87c48.99-29.77,112.35-20.53,150.68,21.98
					c3.38,3.75,6.55,7.76,9.43,11.92c1.37,1.97,2.71,4.03,3.99,6.13l0,0c2.59,4.26,4.92,8.69,6.94,13.18l1.03,2.3l-1.75,1.81
					c-17.81,18.39-52.79,44.17-93.56,68.95c-40.77,24.78-79.76,43.96-104.29,51.3L295.36,455.8z M387.33,267.56
					c-19.97,0-40.1,5.32-58.15,16.29c-45.94,27.92-65.61,84.66-46.77,134.91c1.66,4.43,3.63,8.8,5.85,13
					c1.06,2.01,2.2,4.01,3.39,5.98c1.98,3.26,4.14,6.44,6.43,9.46c23.81-7.62,61.8-26.48,100.13-49.78
					c38.33-23.3,72.57-48.33,90.3-65.96c-1.63-3.42-3.46-6.8-5.44-10.06c-1.2-1.97-2.45-3.9-3.74-5.75
					c-2.7-3.9-5.68-7.66-8.85-11.18C448.65,280.27,418.18,267.56,387.33,267.56z"/>
			</g>
		</g>
		<g>
			<path class="st3" d="M482.39,424.31c0,0-0.68-29.12,2.02-53.17c2.7-24.05-28.82-15.07-24.4,16.59
				c4.12,29.47,11.35,42.69,11.35,42.69"/>
			<path class="st1" d="M471.36,434.55c-1.46,0-2.88-0.78-3.63-2.15c-0.31-0.57-7.64-14.22-11.82-44.1
				c-2.33-16.67,4.38-27.54,11.44-32.15c5.15-3.37,10.82-3.78,15.16-1.11c2.75,1.7,7.2,6.1,6.02,16.55
				c-2.64,23.5-2.01,52.32-2,52.61c0.05,2.29-1.76,4.18-4.04,4.23c-2.27,0.06-4.18-1.76-4.24-4.04c-0.03-1.2-0.66-29.67,2.05-53.73
				c0.48-4.25-0.32-7.46-2.14-8.58c-1.51-0.93-3.92-0.55-6.29,0.99c-4.7,3.07-9.56,11.22-7.77,24.07
				c3.94,28.17,10.82,41.16,10.89,41.28c1.08,2.01,0.34,4.52-1.66,5.61C472.71,434.39,472.03,434.55,471.36,434.55z"/>
		</g>
		<g>
			<path class="st3" d="M394.06,418.77c6.86,17.25,9.61,34.75,14.11,43.1c17.31,32.19,79.7,88.45,173.6,125.34
				c5.17,2.05,10.45,4.02,15.81,5.93l52.6,12.44c-5.86-30.88,4.22-84.26-20.71-100.1c-25.25-16.05-91.82-32.51-131.73-71.7
				c-5.5-5.39-10.48-11.22-14.79-17.53c-0.34-5.13-1.11-10.06-2.21-14.74c-7.93-33.53-33.33-54.31-46.15-49.95
				c-6.09,2.07-9.62,9.04-9.62,9.04c-17.43,3.59-26.98,13.7-31.24,25.18C389.53,397.08,390.46,409.72,394.06,418.77z"/>
		</g>
		<g>
			<path class="st2" d="M394.06,418.77c6.86,17.25,9.61,34.75,14.11,43.1c17.31,32.19,79.7,88.45,173.6,125.34
				c-32.05-17.8-82.47-48.41-97.18-72.02c-25.14-40.31-12.71-67.65,13.16-81.41c-5.5-5.39-10.48-11.22-14.79-17.53
				c-0.34-5.13-1.11-10.06-2.21-14.74c-2.56,12.76-9.22,28.57-26.19,36.07c-46.93,20.71-40.37-9.06-49.3-25.57
				c-5.53-10.2-11.82-12.8-11.53-26.22C389.53,397.08,390.46,409.72,394.06,418.77z"/>
		</g>
		<g>
			<path class="st1" d="M646.12,606.36c-5.72-25.52,3.9-82.15-18.41-97.07c-9.54-6.02-20.3-10.2-30.72-14.66
				c-32.18-13.36-65.72-27.05-93.04-49.68c-9.16-7.63-17.58-16.36-24.4-26.36c-0.42-0.59-0.65-1.26-0.7-1.94
				c-1.14-16.11-6.87-32.07-16.76-44.82c-5.4-6.97-17.41-18.74-26.48-15.85c-2.33,0.95-4.62,3.41-6.03,5.68
				c-0.22,0.37-0.49,0.79-0.6,1.01c-0.65,1.24-1.82,2.07-3.09,2.34c-6.68,1.42-12.98,4.08-17.98,8.27
				c-13.08,10.76-15.35,30.7-8.82,45.76c4.03,10.39,6.74,21.69,9.87,32.11c1.82,6.81,5.37,12.6,9.46,18.32
				c26.44,34.95,63.02,61.1,100.57,83.09c25.53,14.69,52.38,26.58,79.29,38.63c1.05,0.47,1.52,1.69,1.05,2.74
				c-0.42,0.95-1.47,1.42-2.44,1.16c-28.81-7.88-56.13-20.5-82.1-35.16c-39.14-22.49-86.65-55.64-110.12-94.9
				c-1.97-3.38-3.36-7.45-4.5-11.16c-3.26-10.84-5.68-21.22-9.66-31.57c-11.68-28.91,1.72-60.1,33.55-66.1c0,0-3.1,2.37-3.1,2.37
				c0.4-0.75,0.67-1.2,1.03-1.76c13.46-21.28,35.92-5,46.97,9.67c10.95,14.27,17.02,31.78,18.13,49.49l-0.71-2.06
				c6.3,9.23,14.16,17.42,22.86,24.66c31.24,25.9,70.2,39.08,107.07,55.37c5.51,2.55,10.8,5.06,16,8.45
				c20.12,14,18.67,46.64,19.6,68.32c0.32,11.39,0.31,23.02,2.33,34.11C655.07,610.13,647.37,611.81,646.12,606.36L646.12,606.36z"
				/>
		</g>
		<g>
			<path class="st1" d="M493.29,546.03c-1.6,0-3.13-0.94-3.81-2.5c-0.9-2.1,0.07-4.53,2.17-5.44
				c40.17-17.28,40.42-75.54,40.42-76.13c-0.01-2.28,1.84-4.15,4.12-4.16c0.01,0,0.01,0,0.02,0c2.28,0,4.13,1.84,4.14,4.12
				c0.01,2.62-0.2,64.32-45.43,83.77C494.39,545.93,493.83,546.03,493.29,546.03z"/>
		</g>
		<g>
			<g>
				<path class="st3" d="M482.96,416.25c0,0,0,15.49-10.87,26.42"/>
			</g>
			<g>
				<path class="st1" d="M487.1,416.25c-0.78,7.94-3.62,15.65-8.3,22.1c-1.5,2.14-3.36,4.01-5.24,5.78
					c-0.83,0.78-2.14,0.74-2.92-0.1c-0.76-0.8-0.73-2.03-0.01-2.82c5.76-6.87,8.51-16.07,8.2-24.96
					C478.53,410.24,487.38,410.23,487.1,416.25L487.1,416.25z"/>
			</g>
		</g>
	</g>
</g>
</svg>
